<?xml version="1.0" encoding="UTF-8" standalone="no"?>
<!-- Created with Inkscape (http://www.inkscape.org/) -->

<svg
   xmlns:dc="http://purl.org/dc/elements/1.1/"
   xmlns:cc="http://creativecommons.org/ns#"
   xmlns:rdf="http://www.w3.org/1999/02/22-rdf-syntax-ns#"
   xmlns:svg="http://www.w3.org/2000/svg"
   xmlns="http://www.w3.org/2000/svg"
   xmlns:sodipodi="http://sodipodi.sourceforge.net/DTD/sodipodi-0.dtd"
   xmlns:inkscape="http://www.inkscape.org/namespaces/inkscape"
   width="158mm"
   height="127mm"
   viewBox="0 0 158 127"
   version="1.1"
   id="svg8"
   sodipodi:docname="logo.svg"
   inkscape:version="0.92.5 (2060ec1f9f, 2020-04-08)">
  <defs
     id="defs2" />
  <sodipodi:namedview
     id="base"
     pagecolor="#ffffff"
     bordercolor="#666666"
     borderopacity="1.0"
     inkscape:pageopacity="0.0"
     inkscape:pageshadow="2"
     inkscape:zoom="1.2162237"
     inkscape:cx="-91.29705"
     inkscape:cy="116.41331"
     inkscape:document-units="mm"
     inkscape:current-layer="svg8"
     showgrid="false"
     inkscape:window-width="2560"
     inkscape:window-height="1376"
     inkscape:window-x="0"
     inkscape:window-y="27"
     inkscape:window-maximized="1"
     fit-margin-top="0"
     fit-margin-left="0"
     fit-margin-right="0"
     fit-margin-bottom="0" />
  <metadata
     id="metadata5">
    <rdf:RDF>
      <cc:Work
         rdf:about="">
        <dc:format>image/svg+xml</dc:format>
        <dc:type
           rdf:resource="http://purl.org/dc/dcmitype/StillImage" />
        <dc:title></dc:title>
      </cc:Work>
    </rdf:RDF>
  </metadata>
  <path
     style="display:inline;opacity:1;vector-effect:none;fill:#000000;fill-opacity:1;stroke-width:0.35277778;stroke-linecap:butt;stroke-linejoin:miter;stroke-miterlimit:4;stroke-dasharray:none;stroke-dashoffset:0;stroke-opacity:1"
     d="m 72.184075,125.71483 c -2.375084,-0.27583 -9.239599,-1.86547 -11.92821,-2.76226 -17.429762,-5.81372 -32.546289,-20.80672 -39.356387,-39.034768 -1.446799,-3.872533 -1.558506,-4.618828 -0.665617,-4.446873 0.422325,0.08133 0.951598,1.106896 1.697421,3.28906 4.653491,13.615411 15.137244,26.356951 27.890302,33.896771 10.201624,6.03136 22.797607,8.91389 34.534915,7.90314 8.837461,-0.76104 14.206721,-2.23616 21.870631,-6.0086 14.40388,-7.09011 26.20944,-20.439093 31.60654,-35.738677 0.89974,-2.550576 1.35695,-3.406986 1.81915,-3.407484 0.33955,-3.53e-4 0.61736,0.0644 0.61736,0.143916 0,0.876695 -2.51988,7.417965 -4.00586,10.398675 -3.47481,6.97008 -7.46456,12.47812 -12.98507,17.92652 -4.15163,4.0974 -5.28134,5.03399 -9.4674,7.84894 -7.86951,5.29194 -15.223778,8.29163 -25.014084,9.75311 -5.125373,0.76511 -13.41817,0.60965 -16.613691,0.23853 z m 0.881944,-5.25335 C 59.535238,118.50553 49.360926,113.412 39.711093,103.76311 33.043912,97.09658 28.337991,89.87699 25.484511,81.93741 c -0.90756,-2.525215 -0.912047,-2.579853 -0.202837,-2.469445 0.539772,0.08403 0.931478,0.699358 1.531586,2.405959 2.9938,8.513846 9.422774,17.818633 16.466875,23.832856 7.52276,6.42289 15.931522,10.69348 24.917032,12.65471 6.824772,1.48961 16.089076,1.43681 23.213296,-0.1323 13.366877,-2.94406 25.237317,-11.03706 33.988677,-23.17272 2.21848,-3.07642 6.10895,-10.497935 6.97805,-13.311462 0.58282,-1.886736 1.26055,-2.740561 1.77054,-2.230575 0.31329,0.313292 -0.88222,3.64078 -2.71263,7.550107 -5.53676,11.825247 -15.75361,22.26918 -27.32464,27.93196 -8.234377,4.02985 -13.942646,5.37253 -23.459719,5.51813 -3.589514,0.0549 -7.002638,0.031 -7.584722,-0.0531 z m 1.675695,-5.66815 c -0.882869,-0.17813 -0.927718,-0.48972 -0.567105,-3.93988 l 0.226642,-2.16842 h 1.713636 c 1.288045,0 1.713632,0.13142 1.713632,0.52917 0,0.36958 -0.372378,0.52917 -1.234722,0.52917 -0.984709,0 -1.234722,0.13789 -1.234722,0.68102 0,0.42917 0.283316,0.72271 0.766117,0.79375 1.24303,0.1829 1.217598,0.99467 -0.03115,0.99467 -0.925061,0 -1.08773,0.1319 -1.08773,0.88195 0,0.77665 0.150911,0.88194 1.264119,0.88194 0.853338,0 1.217069,0.1433 1.119322,0.44097 -0.154316,0.46997 -1.344073,0.63875 -2.648024,0.37566 z m 8.128176,-3.02149 c -0.192825,-1.60073 -0.322845,-2.94848 -0.288936,-2.99501 0.0339,-0.0465 0.837198,-0.1259 1.785088,-0.17639 1.581121,-0.0842 1.763673,-0.01 2.21078,0.90435 0.753851,1.54089 0.304574,2.63226 -1.199783,2.91448 -1.152126,0.21614 -1.251948,0.32791 -1.116587,1.25017 0.113488,0.77326 0.0081,1.01282 -0.445661,1.01282 -0.480871,0 -0.661229,-0.55553 -0.944901,-2.91042 z m 2.786828,-0.44926 c 0.101572,-0.10158 0.109527,-0.57783 0.01767,-1.05834 -0.122082,-0.6386 -0.393231,-0.87365 -1.007833,-0.87365 -0.699058,0 -0.840818,0.17843 -0.840818,1.05833 0,0.87355 0.143725,1.05834 0.823147,1.05834 0.452734,0 0.906255,-0.0831 1.00783,-0.18468 z m -17.265004,2.25944 c -0.630591,-0.18208 -1.146528,-0.38578 -1.146528,-0.45268 0,-0.38003 1.389313,-5.59844 1.527203,-5.73632 0.287563,-0.28757 2.958536,0.56961 3.38823,1.08736 0.316251,0.38106 0.277456,1.01318 -0.167584,2.73063 -0.744936,2.87481 -1.083807,3.09792 -3.601321,2.37101 z m 2.362701,-1.98657 c 0.610432,-2.19806 0.492608,-2.91042 -0.481387,-2.91042 -0.741461,0 -0.903785,0.23816 -1.244191,1.82541 -0.308073,1.43651 -0.295511,1.88632 0.05896,2.11127 0.869283,0.55165 1.302487,0.2849 1.666614,-1.02626 z m 18.750748,1.23472 c -0.536719,-1.41848 -1.212144,-4.84945 -0.997017,-5.06458 0.447273,-0.44727 0.87424,0.27639 1.477099,2.50353 0.662319,2.44681 0.615618,2.41628 2.571746,1.68115 0.242535,-0.0912 0.440972,0.0739 0.440972,0.36668 0,0.50475 -1.661682,1.30697 -2.707206,1.30697 -0.26689,0 -0.620409,-0.35718 -0.785594,-0.79375 z m 5.444815,-1.05833 c -0.07838,-0.24253 -0.329145,-1.61134 -0.557251,-3.04178 -0.342255,-2.14626 -0.330828,-2.65399 0.06539,-2.90502 0.877513,-0.55598 1.221599,-0.33231 3.105686,2.01883 1.452567,1.81266 1.762127,2.40204 1.386217,2.63925 -0.31258,0.19725 -0.62562,0.11637 -0.88384,-0.22834 -0.600276,-0.80133 -2.245992,0.0286 -2.245992,1.13272 0,0.86592 -0.625319,1.14211 -0.870207,0.38434 z m 1.774825,-2.77071 c 0.132383,-0.21421 -0.197531,-0.80952 -0.73315,-1.32292 -0.732645,-0.70225 -0.918171,-0.7734 -0.749049,-0.28724 0.123641,0.35542 0.224804,0.95073 0.224804,1.32292 0,0.72881 0.862689,0.92588 1.257395,0.28724 z m -38.833548,0.0281 c -0.122841,-0.19876 -0.115464,-0.85257 0.0164,-1.45291 0.131858,-0.60034 0.103936,-1.02794 -0.06205,-0.95022 -0.165986,0.0777 -0.742664,0.36211 -1.281504,0.63196 -0.702,0.35156 -1.087791,0.38255 -1.361013,0.10933 -0.27322,-0.27322 0.02861,-0.6155 1.064789,-1.20751 1.28809,-0.73594 1.470275,-1.00633 1.667446,-2.47477 0.169669,-1.26364 0.343937,-1.60153 0.746358,-1.4471 0.37852,0.14525 0.471463,0.5314 0.333107,1.38397 -0.214881,1.32415 -0.0371,1.42726 1.094398,0.63473 0.539661,-0.378 0.964875,-0.4455 1.371783,-0.21779 0.499001,0.27926 0.363665,0.4727 -0.879983,1.25778 -1.004933,0.63438 -1.4712,1.17737 -1.474491,1.71709 -0.01125,1.84356 -0.673569,2.92422 -1.235227,2.01544 z m 42.983235,-2.65926 c -1.10225,-1.66011 -1.42878,-1.93072 -2.12027,-1.75717 -1.346813,0.33803 -0.95964,-0.59606 0.68195,-1.64527 0.94749,-0.60558 1.61731,-0.83196 1.83058,-0.61868 0.21328,0.21327 0.11727,0.49818 -0.26239,0.77864 -0.5475,0.40444 -0.47957,0.62136 0.79394,2.53482 1.30356,1.95862 1.49204,2.66997 0.70745,2.66997 -0.1806,0 -0.91466,-0.88304 -1.63126,-1.96231 z m 3.28293,-2.82179 -1.97022,-2.30795 1.18459,-1.04009 c 1.16594,-1.023713 1.9734,-1.327313 1.9734,-0.741983 0,0.16395 -0.3175,0.585433 -0.70556,0.936623 -0.78862,0.71369 -0.82435,0.8538 -0.39175,1.53651 0.25034,0.39508 0.45831,0.37642 1.19665,-0.10736 1.09784,-0.71934 1.56089,-0.17646 0.59503,0.69763 -0.65741,0.59495 -0.66402,0.67342 -0.10843,1.28734 0.57473,0.63508 0.61441,0.63239 1.38785,-0.0942 0.43791,-0.4114 0.97441,-0.63785 1.19222,-0.50323 0.47789,0.29535 0.0104,0.94001 -1.42054,1.95894 l -0.96303,0.68574 -1.97021,-2.30795 z m -52.897621,0.61966 c -0.521371,-0.54419 -0.941074,-1.21888 -0.932674,-1.49931 0.0084,-0.28042 0.795849,-1.38135 1.74988,-2.44651 1.335451,-1.491003 1.830659,-1.840603 2.152011,-1.519243 0.321356,0.32135 0.03814,0.83923 -1.230753,2.250553 -1.589857,1.7683 -1.62626,1.85735 -1.029155,2.51714 0.60573,0.66932 0.656089,0.64512 2.347768,-1.12825 1.121537,-1.1757 1.917505,-1.73983 2.266106,-1.60606 0.447118,0.17158 0.396357,0.36754 -0.302327,1.16713 -3.253373,3.72323 -3.511715,3.83975 -5.020856,2.26455 z m 57.488531,-4.650773 c -1.79457,-2.698787 -1.86371,-2.906557 -1.16129,-3.489517 0.3657,-0.3035 1.11671,-0.10156 3.19739,0.85978 1.56885,0.72485 2.65876,1.434127 2.57605,1.676387 -0.0789,0.23097 -0.45665,0.37522 -0.83953,0.32056 -0.91791,-0.13105 -2.15931,1.200013 -1.62111,1.738213 0.39785,0.39785 0.22172,1.35979 -0.24897,1.35979 -0.14481,0 -1.00095,-1.10935 -1.90254,-2.465213 z m 1.87029,-0.86421 c 0.343,-0.41329 0.2236,-0.60924 -0.64484,-1.058327 -1.47834,-0.76448 -1.58329,-0.70317 -0.86831,0.507187 0.70595,1.19508 0.91541,1.27137 1.51315,0.55114 z m -63.852871,1.00699 -1.216396,-1.26547 1.234722,-1.059157 c 0.679098,-0.58254 1.756971,-1.4658 2.395273,-1.96279 l 1.160551,-0.90362 1.04431,1.00052 c 0.961814,0.92147 1.380515,1.92684 0.802464,1.92684 -0.133015,0 -0.612539,-0.34825 -1.065604,-0.77388 -0.768026,-0.72152 -0.863438,-0.7342 -1.410268,-0.18737 -0.546827,0.54683 -0.546336,0.6309 0.0073,1.24263 0.722507,0.798357 0.752532,1.129727 0.102359,1.129727 -0.270285,0 -0.5828,-0.23812 -0.694486,-0.52917 -0.244016,-0.635897 -0.984398,-0.687187 -1.563289,-0.1083 -0.325966,0.32597 -0.247473,0.60543 0.348107,1.23939 0.506787,0.53946 0.650046,0.937463 0.420176,1.167333 -0.22987,0.22987 -0.763524,-0.0827 -1.56519,-0.916683 z M 75.535464,96.64866 c -6.363632,-3.24312 -6.662558,-3.54991 -7.006248,-7.19036 -0.185907,-1.96921 -0.176696,-2.00596 0.132514,-0.5288 0.182771,0.87312 0.661857,1.85809 1.064641,2.18881 0.873312,0.71707 0.813343,0.7359 7.220204,-2.26731 4.616993,-2.1642 5.633748,-2.79331 6.187877,-3.82871 0.319514,-0.597022 -1.436155,-9.96403 -2.100097,-11.204616 -0.781286,-1.459843 -1.807414,-1.228181 -6.943922,1.567703 -6.916409,3.764706 -6.434557,3.361199 -6.585024,5.514389 L 67.3757,82.755888 67.31585,80.992 c -0.03291,-0.970139 0.05677,-1.944815 0.199323,-2.165947 0.142551,-0.221135 2.770082,-1.768947 5.838959,-3.439583 4.04742,-2.20334 5.92515,-3.037526 6.837391,-3.037526 0.993373,0 2.007641,0.532141 4.827171,2.532592 3.403455,2.41475 4.779172,3.643905 4.796427,4.285449 0.0043,0.160404 -0.374336,-0.16255 -0.841446,-0.717677 -1.057455,-1.256714 -6.823576,-5.247866 -7.133696,-4.937749 -0.260794,0.260798 1.838558,10.955933 2.331255,11.876541 0.354347,0.66211 5.433617,4.29087 5.89571,4.21205 0.925699,-0.1579 1.479215,0.0833 1.294708,0.56407 -0.111686,0.29104 -0.03897,0.52917 0.161594,0.52917 0.200557,0 0.437254,-0.27781 0.525984,-0.61736 0.08873,-0.33955 0.179751,-0.12603 0.202258,0.47449 0.02427,0.64748 -0.218528,1.32665 -0.596575,1.66878 -0.915236,0.82827 -11.750357,5.883687 -12.591669,5.874967 -0.388055,-0.004 -1.975555,-0.654537 -3.527777,-1.445607 z m 10.313214,-1.81757 c 3.8184,-1.80778 5.385396,-2.72331 5.385396,-3.14647 0,-0.32825 -0.161339,-0.69653 -0.358531,-0.8184 -0.197192,-0.12187 -0.252039,-0.39389 -0.121881,-0.60449 0.139968,-0.22648 0.07273,-0.28161 -0.164578,-0.13494 -0.222564,0.13755 -1.808487,-0.72724 -3.561532,-1.94206 l -3.160306,-2.19004 -6.635334,3.10159 c -3.649437,1.70588 -6.787282,3.24047 -6.972995,3.41021 -0.531848,0.48608 0.371211,1.163 4.394602,3.2941 2.88792,1.52967 3.93616,1.91994 4.756965,1.77108 0.579035,-0.10501 3.476223,-1.33827 6.438194,-2.74058 z m -7.931964,2.20131 c -1.167748,-0.46938 -0.967324,-0.71837 0.239578,-0.29764 0.733795,0.2558 1.253857,0.24219 1.794104,-0.0469 0.418426,-0.22393 0.848568,-0.31936 0.955873,-0.21205 0.187614,0.18761 -1.4582,0.94394 -1.954188,0.89803 -0.132888,-0.0123 -0.598805,-0.16593 -1.035367,-0.3414 z m 0.378495,-1.25934 c -0.220589,-0.57484 0.401962,-1.18394 1.220075,-1.19372 0.667653,-0.008 0.963986,1.07444 0.393114,1.43592 -0.752059,0.4762 -1.373307,0.38293 -1.613189,-0.2422 z m 3.237477,0.21199 c 0.119916,-0.19402 0.376777,-0.35277 0.570805,-0.35277 0.194027,0 0.254666,0.15875 0.13475,0.35277 -0.119916,0.19403 -0.376777,0.35278 -0.570805,0.35278 -0.194028,0 -0.254667,-0.15875 -0.13475,-0.35278 z m 0.352777,-1.41111 c -0.35065,-0.56736 0.149977,-1.05833 1.079155,-1.05833 0.966554,0 1.184056,0.85893 0.303103,1.19698 -0.786899,0.30196 -1.131298,0.26741 -1.382258,-0.13865 z M 73.65544,93.63022 c 0.07701,-0.40583 0.491067,-0.68614 1.120246,-0.75839 0.806034,-0.0926 0.97457,0.009 0.875912,0.52917 -0.07702,0.40583 -0.491067,0.68614 -1.120246,0.75839 -0.806033,0.0926 -0.97457,-0.009 -0.875912,-0.52917 z m 12.463357,-0.82017 c -0.350651,-0.56736 0.149976,-1.05833 1.079154,-1.05833 0.943603,0 1.091614,0.33396 0.43779,0.98778 -0.515228,0.51523 -1.22181,0.54809 -1.516944,0.0705 z m -7.748644,-0.68538 c -0.365418,-0.59125 0.128178,-1.0785 1.092553,-1.0785 0.654395,0 0.856135,0.16189 0.769327,0.61736 -0.132348,0.69439 -1.507261,1.03493 -1.86188,0.46114 z m -1.952745,-1.95139 c 0,-0.26298 2.030539,-1.24543 2.54012,-1.22899 0.252169,0.008 -0.09713,0.31898 -0.776231,0.69076 -1.251507,0.68518 -1.763889,0.84152 -1.763889,0.53823 z m 5.820833,-0.53823 c -0.342857,-0.55475 0.142657,-1.05833 1.020357,-1.05833 1.042134,0 1.364622,0.34612 0.873665,0.93768 -0.461,0.55547 -1.581189,0.62683 -1.894022,0.12065 z m 29.986109,5.07719 c -2.59145,-1.55609 -2.5079,-1.47567 -2.0299,-1.95367 0.28816,-0.28816 0.87766,-0.094 2.2174,0.73036 1.93793,1.19242 2.90551,1.28423 3.09624,0.2938 0.0807,-0.41909 -0.5497,-1.02817 -2.03851,-1.96953 -1.68001,-1.06224 -2.05317,-1.44762 -1.69198,-1.74738 0.73001,-0.60585 4.85647,2.14235 4.85647,3.23438 0,0.92099 -1.23434,2.68535 -1.87768,2.68395 -0.22846,-3.5e-4 -1.36787,-0.57286 -2.53204,-1.27191 z m -68.942448,-0.009 c -0.944601,-1.20086 -0.939394,-2.46199 0.01228,-2.9713 0.989661,-0.52965 1.901172,0.21863 0.932265,0.76532 -0.725188,0.40918 -0.800069,1.13359 -0.171136,1.65556 0.325899,0.27047 0.990148,0.0377 2.463309,-0.86336 1.805153,-1.10408 2.734903,-1.28473 2.734903,-0.53139 0,0.31685 -4.320988,2.8747 -4.856258,2.8747 -0.21131,0 -0.713221,-0.41829 -1.11536,-0.92952 z m 47.612962,-9.13821 c -0.452296,-2.037726 -0.746248,-3.781066 -0.653224,-3.87409 0.09302,-0.09303 0.52741,1.509882 0.965299,3.56201 0.437889,2.05214 0.731841,3.79548 0.653224,3.87409 -0.07862,0.0786 -0.512999,-1.52429 -0.965299,-3.56201 z m -1.015428,2.57476 c -0.461917,-0.46191 -0.56007,-2.03202 -0.127028,-2.03202 0.492234,0 1.128889,0.82387 1.128889,1.46084 0,0.80596 -0.488555,1.08449 -1.001861,0.57119 z M 71.958872,87.69527 c -0.337799,-0.88029 0.159586,-1.64618 0.989743,-1.52405 0.990356,0.14569 1.181819,0.76201 0.460731,1.4831 -0.711687,0.71169 -1.18793,0.72513 -1.450474,0.041 z m -4.134594,-2.41095 c -0.156478,-1.132 -0.192038,-2.150646 -0.07902,-2.263662 0.113019,-0.113016 0.224267,0.336914 0.247223,0.99984 l 0.04174,1.205322 0.244373,-1.058331 0.244369,-1.058333 0.16933,1.298169 c 0.09313,0.713995 0.05456,1.227245 -0.08571,1.140545 -0.140271,-0.0867 -0.309661,0.28163 -0.376417,0.8185 -0.08132,0.65397 -0.215272,0.29686 -0.405885,-1.08205 z m 13.978928,0.20609 c 0.305947,-0.33955 0.622646,-1.17299 0.703774,-1.852087 l 0.147514,-1.234722 0.05645,1.169719 c 0.06256,1.296038 -0.459775,2.53445 -1.068962,2.53445 -0.230121,0 -0.162814,-0.25774 0.161219,-0.61736 z m -3.848837,-0.621856 c -0.265585,-0.692108 0.482057,-1.583009 1.328455,-1.583009 0.463437,0 0.662362,0.253538 0.662362,0.844201 0,1.188794 -1.591501,1.779414 -1.990817,0.738808 z m 6.748413,-0.540634 c -0.357163,-1.125326 0.437892,-1.766736 1.091741,-0.880762 0.598287,0.810686 0.489448,1.381989 -0.292181,1.533634 -0.321222,0.06232 -0.660491,-0.214708 -0.79956,-0.652872 z m 1.82759,-1.630849 c -0.33214,-0.33214 -0.293409,-1.88148 0.04704,-1.88148 0.498538,0 1.128889,0.827338 1.128889,1.481666 0,0.622491 -0.71138,0.864362 -1.175925,0.399814 z m -16.075713,-2.21295 c -0.25117,-0.155233 -0.399192,-0.580718 -0.328937,-0.945526 0.1657,-0.860397 1.823138,-0.918566 1.986612,-0.06972 0.136747,0.710071 -1.012543,1.413958 -1.657675,1.015249 z m 17.674971,-0.09186 c -0.232833,-0.232833 -0.423333,-0.720725 -0.423333,-1.084199 0,-1.075644 1.216166,-0.587488 1.346348,0.54041 0.118868,1.029843 -0.230897,1.235908 -0.923015,0.543789 z m -5.013346,-3.464514 c -0.427627,-0.799024 -0.199242,-1.403819 0.530116,-1.403819 0.550188,0 1.043326,1.222142 0.710459,1.760732 -0.344922,0.558094 -0.824763,0.420042 -1.240575,-0.356913 z m -6.281335,-0.610069 c 0.129092,-1.121939 1.549386,-1.59445 1.91656,-0.63761 0.276758,0.721225 -0.463447,1.607749 -1.342397,1.607749 -0.540011,0 -0.662061,-0.206223 -0.574163,-0.970139 z M 128.73878,73.83565 c -0.68842,-0.437738 -1.10361,-1.948709 -0.77636,-2.825316 0.33428,-0.895403 1.83277,-1.630155 4.07834,-1.999718 l 1.47196,-0.242249 1.38945,-3.942358 c 2.39669,-6.800226 3.68367,-10.859579 3.50088,-11.042364 -0.31882,-0.318819 -4.62918,0.603828 -6.10431,1.306646 -0.79477,0.378669 -1.62452,1.082393 -1.84388,1.563829 -0.53072,1.164802 0.0102,2.552972 1.16594,2.992399 1.06911,0.406474 1.17192,1.060739 0.16668,1.060739 -1.19123,0 -2.45341,-1.552554 -2.45341,-3.017855 0,-0.983245 0.27274,-1.558773 1.15841,-2.444436 1.14815,-1.148151 1.46762,-1.253783 7.5437,-2.494308 0.42054,-0.08586 1.10311,-0.703803 1.51682,-1.373205 0.80642,-1.304802 1.66707,-1.761152 2.62685,-1.392852 0.39682,0.152273 0.56186,0.540618 0.49067,1.154529 -0.0799,0.688954 -0.48135,1.105158 -1.57283,1.630627 l -1.46555,0.705556 -2.35218,7.177172 c -1.29371,3.947442 -2.27499,7.254366 -2.18064,7.34872 0.74839,0.74839 4.14537,-3.140685 5.19512,-5.947699 1.46789,-3.9251 4.53298,-6.263618 6.12416,-4.672439 0.71419,0.714195 0.70008,1.383143 -0.0562,2.663395 -0.56858,0.962522 -3.5505,2.779461 -4.56159,2.779461 -0.53861,0 -1.17787,1.106502 -1.17787,2.038798 0,0.97923 1.12245,1.841758 2.39675,1.841758 1.94039,0 3.33102,-1.634031 5.03209,-5.912848 1.73634,-4.367548 1.59229,-4.099948 2.05351,-3.814904 0.22438,0.138681 0.0245,1.102187 -0.53787,2.592966 -2.2682,6.012547 -2.36052,6.883753 -0.74914,7.069374 1.48366,0.170907 2.46567,-1.120465 4.12318,-5.422138 0.81825,-2.123585 1.63306,-4.009228 1.81067,-4.190319 0.82399,-0.840119 0.65071,0.378308 -0.48497,3.409936 -1.4737,3.933983 -1.86759,5.738897 -1.32552,6.073916 0.80175,0.495508 1.85246,-0.275844 2.89709,-2.126834 0.59364,-1.051863 1.23364,-1.912482 1.42222,-1.912482 0.84397,0 -1.22181,3.773395 -2.59069,4.732196 -1.09041,0.76376 -1.91301,0.702028 -2.53815,-0.190479 l -0.52528,-0.749949 -0.95341,0.749949 c -0.52437,0.412471 -1.25993,0.749949 -1.63458,0.749949 -0.98413,0 -2.0459,-0.647227 -2.0459,-1.247133 0,-0.684632 -0.19583,-0.653912 -1.37124,0.215107 -0.54444,0.402523 -1.6416,0.819273 -2.43813,0.926108 -1.26942,0.170265 -1.57832,0.06416 -2.50181,-0.859328 l -1.05358,-1.053574 -1.13807,1.174189 c -0.62593,0.645802 -1.80554,1.487936 -2.62133,1.871405 -1.15851,0.544562 -1.61543,1.029854 -2.08693,2.216471 -0.88136,2.218133 -1.84026,3.107789 -3.34276,3.101354 -0.69378,-0.0028 -1.44993,-0.125264 -1.68033,-0.271762 z m 2.80943,-0.869365 c 0.3218,-0.242534 0.83976,-1.058393 1.15102,-1.813016 l 0.56592,-1.372045 -1.52456,0.243346 c -2.7108,0.432689 -3.77573,1.610297 -2.55771,2.828322 0.66792,0.667918 1.57206,0.71126 2.36533,0.113393 z m 13.0435,-12.461896 c 0.9418,-0.616144 1.32292,-1.118111 1.32292,-1.742415 0,-0.704599 -0.17663,-0.876938 -0.89879,-0.876938 -0.96796,0 -2.3517,1.268031 -3.22681,2.956976 l -0.52679,1.016702 1.00328,-0.244422 c 0.5518,-0.134433 1.59859,-0.633889 2.32619,-1.109903 z m -3.0868,-8.969353 c 0.50686,-0.560081 0.53268,-0.705556 0.12523,-0.705556 -0.55333,0 -1.35996,0.669576 -1.35996,1.128889 0,0.499869 0.57884,0.30141 1.23473,-0.423333 z M 59.484075,73.214754 c 0,-0.138215 0.396875,-1.351531 0.881944,-2.696256 1.09207,-3.027475 1.091837,-3.174584 -0.0046,-2.899399 -2.099232,0.526873 -2.47868,-1.581461 -1.036581,-5.759598 0.989397,-2.866531 0.898042,-3.974465 -0.327716,-3.974465 -1.550141,0 -3.290312,2.598042 -4.784884,7.14375 -0.452314,1.375709 -0.983833,2.381249 -1.2587,2.381249 -0.531033,0 -0.482678,-0.21216 1.045259,-4.586111 1.043965,-2.988507 1.06976,-4.690935 0.07393,-4.879735 -0.35686,-0.06766 -1.054407,0.248547 -1.550113,0.70267 -0.884611,0.810408 -3.103086,5.185452 -3.951654,7.793038 -0.42575,1.308294 -1.081345,1.800443 -1.081345,0.811752 0,-0.44637 -0.155081,-0.44637 -1.223391,0 -1.680602,0.702197 -2.749709,0.641018 -3.844311,-0.219996 -0.782278,-0.61534 -0.92952,-1.009978 -0.92952,-2.491292 0,-3.279799 2.932867,-7.713659 5.102355,-7.713659 1.034877,0 1.9532,0.860679 1.9532,1.830592 0,1.163437 -2.491694,3.375382 -4.367396,3.877053 -1.906665,0.509958 -2.441984,1.552846 -1.584748,3.087356 1.043894,1.868635 4.149379,1.117818 5.528917,-1.336739 0.40253,-0.716202 1.233064,-2.687306 1.845634,-4.380226 1.053839,-2.912421 1.521125,-3.596047 1.828253,-2.674669 0.100877,0.302633 0.322669,0.302633 0.88815,0 1.193617,-0.638807 2.148262,-0.474585 2.771623,0.476786 l 0.576697,0.880152 1.046004,-0.880152 c 1.123385,-0.945268 2.044636,-1.096755 3.131724,-0.514964 0.963782,0.5158 0.884142,2.379726 -0.243452,5.697911 -0.509196,1.498424 -0.83168,2.969719 -0.716625,3.269545 0.281149,0.73267 1.401632,0.690389 2.098075,-0.07917 0.583635,-0.64491 2.13609,-4.159229 3.269576,-7.401394 0.356126,-1.018646 0.854265,-1.852084 1.106978,-1.852084 0.252712,0 0.459479,0.164335 0.459479,0.365189 0,0.251735 0.211994,0.251735 0.682364,0 1.085719,-0.581057 2.056123,-0.42762 2.649022,0.418864 0.775949,1.107824 0.668874,2.941048 -0.310974,5.324016 -0.712388,1.732523 -0.762391,2.082207 -0.321906,2.251237 0.875757,0.33606 2.096798,-0.465025 2.72426,-1.787303 0.713478,-1.503546 1.808942,-2.338669 3.06772,-2.338669 1.02097,0 2.092847,0.96279 2.092847,1.879861 0,0.804368 -0.608309,0.746174 -0.871601,-0.08338 -0.645679,-2.034353 -3.361732,-0.474514 -3.361732,1.930654 0,0.939655 1.357312,1.917312 2.661867,1.917312 2.589074,0 3.740047,-2.620966 2.392193,-5.447443 -0.489007,-1.025458 -0.731312,-1.202676 -1.411111,-1.032058 -0.890263,0.223442 -1.074717,-0.180954 -0.393333,-0.862337 0.235066,-0.235067 0.38409,-1.027158 0.331159,-1.760206 -0.06879,-0.9528 0.09655,-1.507278 0.579924,-1.944723 1.49859,-1.356204 2.411575,0.444775 1.307656,2.579518 -0.493004,0.953368 -0.469085,1.135144 0.352778,2.680857 0.484903,0.91198 0.881644,2.118632 0.881644,2.681454 0,3.644399 -4.535903,5.472631 -6.825833,2.751208 -0.838013,-0.995924 -0.910989,-1.015422 -1.91872,-0.512699 -0.72149,0.359928 -1.30798,0.425432 -1.884151,0.210435 -0.676758,-0.252529 -1.057945,-0.118597 -1.995378,0.701082 -1.207615,1.055928 -2.793456,1.329595 -3.516252,0.606799 -0.460142,-0.460142 -0.644098,-0.122512 -1.936676,3.554473 -0.438132,1.246346 -0.995038,2.331138 -1.237573,2.41065 -0.242534,0.07951 -0.440972,0.03147 -0.440972,-0.106736 z M 65.48836,66.52444 c 1.120076,-0.579215 1.917382,-1.744215 1.573981,-2.299854 -0.363742,-0.588542 0.202519,-1.777964 0.797229,-1.674572 0.665413,0.11569 1.244533,-1.694561 1.080921,-3.378814 -0.13886,-1.429459 -1.232379,-1.648012 -2.341051,-0.467886 -0.839978,0.894119 -3.223164,6.028951 -3.230502,6.960471 -0.0038,0.481426 0.62828,1.393473 0.965711,1.393473 0.06784,0 0.587012,-0.239769 1.153711,-0.532818 z M 45.833064,60.715026 c 1.257974,-0.797782 1.656567,-1.264641 1.656567,-1.940278 0,-1.987356 -2.718654,-0.64795 -4.101518,2.020704 -0.46017,0.888041 -0.448084,0.970139 0.142836,0.970139 0.35505,0 1.391003,-0.472754 2.302115,-1.050565 z m 31.789627,-3.762428 c 0.295338,-0.769637 -0.0968,-1.127372 -0.513507,-0.468457 -0.417174,0.659645 -0.426053,1.048117 -0.02395,1.048117 0.173271,0 0.415132,-0.260847 0.537472,-0.57966 z M 13.061056,71.441739 c -0.600092,-0.296087 -2.21319,-1.562471 -3.5846621,-2.81419 -1.371472,-1.251715 -2.6016988,-2.275847 -2.7338363,-2.275847 -0.1321379,0 -0.6438861,0.3175 -1.1372187,0.705556 -1.7250522,1.356928 -4.68237378,0.495737 -4.68237378,-1.363536 0,-0.36189 0.32902208,-1.076265 0.73116018,-1.5875 0.8888522,-1.129993 2.1637776,-1.20518 3.775283,-0.222645 0.6352797,0.387329 1.2121543,0.704236 1.2819436,0.704236 0.411377,0 3.9227601,-10.514777 3.6143701,-10.823169 -0.3613121,-0.361311 -5.6254126,0.970841 -6.6117915,1.673204 -1.7316684,1.233057 -1.7956529,3.583548 -0.1149453,4.222552 0.8290937,0.315221 1.1894259,1.046858 0.5155791,1.046858 -1.8630395,0 -3.24966628,-2.389784 -2.4736588,-4.263235 0.6749171,-1.629392 2.1565748,-2.428219 5.8976115,-3.179667 1.8912379,-0.379882 3.493486,-0.850879 3.560552,-1.046653 0.06706,-0.195777 0.524706,-0.834623 1.016979,-1.419655 0.970084,-1.152878 2.060465,-1.259565 2.685154,-0.262721 0.473255,0.755192 -0.132755,1.517509 -1.938831,2.438898 -1.261594,0.643618 -1.399755,0.885775 -2.450897,4.295743 -0.6126661,1.987525 -1.5175251,4.632226 -2.0107991,5.877119 l -0.896862,2.263439 2.5600681,2.441258 c 3.710352,3.53816 5.71698,4.147396 7.667006,2.327793 0.566598,-0.528704 0.824354,-0.596201 1.026669,-0.268848 0.167113,0.270393 -0.09528,0.751406 -0.688011,1.261254 -1.137458,0.978401 -3.332629,1.096631 -5.008489,0.269756 z M 5.1355289,66.314565 6.3494817,65.574512 5.4883067,64.923693 C 4.2686843,64.001987 3.5466283,63.884198 2.709676,64.470423 c -0.8903041,0.623595 -0.9454741,1.719774 -0.1110165,2.205799 0.8788608,0.511892 1.1726436,0.47001 2.5368694,-0.361657 z M 13.293379,51.875403 c 0.804639,-0.430632 0.902062,-1.045923 0.165609,-1.045923 -0.284215,0 -0.686675,0.3175 -0.894356,0.705556 -0.425064,0.79424 -0.261802,0.870493 0.728747,0.340367 z m 15.962832,16.782175 c -1.240794,-0.539659 -2.227691,-2.11588 -2.227691,-3.557958 0,-2.296393 2.251628,-4.74514 4.363168,-4.74514 1.275142,0 1.170914,0.568879 -0.152731,0.833607 -1.716073,0.343214 -3.152103,2.018739 -3.152103,3.677793 0,2.08782 1.064257,3.249711 2.97664,3.249711 2.856904,0 3.771965,-1.27654 6.195582,-8.643055 0.829867,-2.522361 1.803177,-5.172784 2.162912,-5.88983 0.359734,-0.717045 0.53618,-1.372386 0.392102,-1.456312 -0.971998,-0.566198 -7.105185,-1.669345 -8.179468,-1.4712 -1.828525,0.337256 -2.842213,1.425007 -2.842213,3.04987 0,1.883007 1.117135,2.592775 3.568962,2.267528 2.238781,-0.296986 2.278984,0.508759 0.0492,0.985975 -3.01007,0.644211 -5.265519,-1.608924 -4.451569,-4.447003 0.790924,-2.757791 3.938044,-3.37983 9.625724,-1.902552 3.194159,0.829627 3.238627,0.831359 4.523317,0.176389 1.811842,-0.923731 4.708045,-0.895089 5.56792,0.05506 0.614485,0.678999 0.616507,0.748305 0.03863,1.322917 -0.495705,0.492905 -1.169596,0.590973 -3.601148,0.524062 l -2.99133,-0.08232 -0.700892,1.140654 c -0.385491,0.627359 -1.437484,3.4097 -2.33777,6.182984 -1.881992,5.797409 -3.110432,7.998809 -4.874949,8.736073 -1.50197,0.627563 -2.496903,0.625739 -3.95229,-0.0073 z M 46.954072,51.545379 c 0.305064,-0.493606 -1.378507,-0.832428 -2.805772,-0.564673 -2.073332,0.388962 -1.800596,0.907108 0.47747,0.907108 1.164167,0 2.211903,-0.154097 2.328302,-0.342435 z M 14.10037,67.26249 c -1.215854,-0.878163 -1.507677,-2.233175 -0.95014,-4.411751 1.118941,-4.372253 4.454893,-7.28315 6.26837,-5.469671 1.27424,1.27424 0.09043,3.357605 -2.617863,4.607119 -2.9759,1.372979 -2.993779,1.385686 -3.116786,2.215077 -0.06347,0.427966 0.138625,1.165814 0.449104,1.639669 1.208278,1.844065 4.688548,0.466178 5.839237,-2.31183 0.391228,-0.944506 1.411784,-1.505642 1.411784,-0.776245 0,0.619989 -2.125622,3.586448 -2.963053,4.135151 -1.298652,0.850911 -3.406637,1.032637 -4.320653,0.372481 z m 3.491345,-6.758101 c 0.941801,-0.616144 1.322916,-1.118111 1.322916,-1.742415 0,-0.704599 -0.176634,-0.876938 -0.898789,-0.876938 -0.967956,0 -2.351697,1.268031 -3.226804,2.956976 l -0.526791,1.016702 1.003276,-0.244422 c 0.551801,-0.134433 1.598588,-0.633889 2.326192,-1.109903 z m 70.759512,6.892816 c -0.905859,-0.528581 -1.065632,-2.06786 -0.456381,-4.396892 0.764893,-2.92403 2.072354,-5.027245 3.568784,-5.740844 1.151308,-0.549021 1.307864,-0.549557 2.251961,-0.0077 l 1.014638,0.58232 0.733489,-2.002988 c 0.403422,-1.101647 0.812616,-2.227975 0.909323,-2.502954 0.115778,-0.329209 0.294852,-0.38094 0.524323,-0.151469 0.229475,0.229475 -0.316653,2.246715 -1.599064,5.906512 -1.071157,3.056915 -1.947559,6.022266 -1.947559,6.58967 0,2.194994 2.508642,0.850731 4.078813,-2.185645 0.552846,-1.069089 1.212856,-1.355732 1.212856,-0.526743 0,0.875831 -2.267175,3.901719 -3.289207,4.389942 -1.240155,0.592416 -2.58856,0.286226 -2.887511,-0.655691 -0.220652,-0.695205 -0.253954,-0.690615 -1.285303,0.177208 -1.123873,0.945677 -1.871003,1.0844 -2.829162,0.5253 z m 2.695801,-1.662864 c 0.879983,-0.948729 3.009269,-5.561771 3.009269,-6.519502 0,-0.72861 -0.748595,-1.329803 -1.655844,-1.329803 -1.534322,0 -3.988601,4.561741 -3.988601,7.413565 0,1.727976 1.245546,1.933934 2.635176,0.43574 z m 11.863102,1.44841 c -0.74054,-0.518699 -0.8066,-0.77059 -0.62444,-2.38125 0.19551,-1.728766 2.08087,-7.091623 2.73332,-7.77489 0.84031,-0.879994 0.59485,0.450966 -0.77548,4.204801 -1.62393,4.448587 -1.60544,5.195876 0.13373,5.405084 1.2862,0.154721 2.4322,-1.507229 4.09775,-5.942623 0.75673,-2.01519 1.55272,-3.722927 1.76886,-3.794971 0.58272,-0.19424 0.507,0.179003 -0.8137,4.011185 -1.59824,4.63749 -1.72041,5.794393 -0.61188,5.794393 0.35798,0 0.90885,-0.285062 1.22416,-0.633469 0.68375,-0.755534 2.37693,-4.455252 3.21971,-7.035299 0.60122,-1.840523 1.27059,-2.692163 1.52234,-1.936887 0.0961,0.288424 0.36013,0.293264 0.96495,0.01767 0.45793,-0.208647 1.24679,-0.2754 1.75303,-0.148343 1.34139,0.33667 1.66198,1.533892 1.01521,3.791257 -0.29753,1.038461 -0.74249,2.602483 -0.98879,3.475608 -0.51119,1.812163 -0.37828,2.469445 0.49935,2.469445 0.76285,0 1.47952,-0.798961 2.45245,-2.734028 0.72609,-1.444145 1.44861,-1.974522 1.44173,-1.058333 -0.007,0.899234 -2.17367,4.187747 -3.01078,4.56916 -1.39447,0.635377 -2.63035,-0.111538 -2.63035,-1.589666 0,-0.649432 0.39687,-2.316731 0.88194,-3.705105 1.07304,-3.071269 1.0983,-3.808067 0.14802,-4.316642 -1.11582,-0.597168 -3.15321,1.729747 -4.38918,5.012905 -1.8662,4.957272 -1.61786,4.596158 -3.26269,4.744318 -1.09685,0.0988 -1.66143,-0.03373 -2.1269,-0.499181 -0.60938,-0.609374 -0.67363,-0.609423 -1.67508,-0.0014 -1.29193,0.784592 -1.89092,0.795994 -2.94728,0.05609 z m -0.62646,-13.670717 c 0.10393,-0.270845 0.38473,-1.145857 0.624,-1.944468 0.51065,-1.7044 1.37918,-2.659144 1.37918,-1.516084 0,1.044899 -1.31618,3.952998 -1.78909,3.952998 -0.22168,0 -0.31803,-0.221601 -0.21409,-0.492446 z M 20.325743,44.738747 c 0,-0.07842 0.625544,-1.679977 1.390098,-3.559012 3.397853,-8.350865 8.26367,-15.484766 15.241888,-22.346532 4.624903,-4.547721 8.046304,-7.128649 13.530513,-10.2067186 15.508153,-8.70411184 35.132948,-9.9641828 51.736038,-3.3218738 14.15531,5.6630394 26.28335,16.8615384 33.59688,31.0218814 1.57347,3.046523 3.39069,7.420389 3.39069,8.161042 0,0.189597 -0.28024,0.344724 -0.62275,0.344724 -0.43434,0 -0.81747,-0.560331 -1.26635,-1.852083 -0.35398,-1.018646 -1.49353,-3.543039 -2.53233,-5.609759 C 127.28538,22.438957 114.91179,11.283741 99.77803,5.8055446 87.572453,1.3873067 72.751662,1.3663067 60.219204,5.7494946 47.971204,10.033193 37.590133,18.093801 29.421783,29.662815 c -1.99277,2.822405 -5.345578,9.11255 -6.65331,12.48216 -0.726533,1.872043 -1.161255,2.539576 -1.7086,2.623626 -0.403771,0.062 -0.73413,0.04857 -0.73413,-0.02985 z m 5.291666,-0.06705 c 0,-0.551318 3.14541,-7.160073 4.456965,-9.364436 C 39.16421,20.02974 54.110885,9.6317364 70.880649,6.9194196 c 5.189358,-0.839319 15.126709,-0.605875 20.000648,0.469846 11.009013,2.4297868 19.686233,7.1107234 27.822493,15.0088754 5.69683,5.530121 9.60324,10.961431 12.95404,18.010783 1.05027,2.209525 1.90958,4.108676 1.90958,4.22033 0,0.111654 -0.27782,0.202943 -0.61736,0.202865 -0.44109,-1.02e-4 -1.1171,-1.08295 -2.36755,-3.792361 C 117.54865,12.798578 86.254743,0.20438866 58.072964,11.858396 c -6.103768,2.52409 -13.884822,7.953597 -18.558711,12.949996 -4.588061,4.904653 -9.393684,12.121879 -11.497387,17.267118 -0.819621,2.004628 -1.3007,2.75675 -1.763297,2.75675 -0.349888,0 -0.63616,-0.07225 -0.63616,-0.160563 z M 50.809637,30.112324 c -2.354623,-4.160976 -2.301798,-4.033037 -1.876693,-4.545254 0.635116,-0.765268 1.191083,-0.606134 3.860683,1.105035 2.372053,1.52045 2.983142,2.582207 1.23342,2.143055 -1.01213,-0.254028 -1.998651,0.766791 -1.730819,1.790988 0.383529,1.466616 -0.553321,1.155407 -1.486591,-0.493824 z m 1.618883,-2.180533 c 0,-0.128436 -0.47625,-0.514848 -1.058334,-0.858693 -1.210366,-0.714982 -1.271675,-0.610026 -0.507199,0.86831 0.44909,0.868442 0.645047,0.987838 1.058333,0.644841 0.278959,-0.231516 0.5072,-0.526022 0.5072,-0.654458 z m 52.40147,1.048065 c -0.11224,-0.1816 -0.0461,-1.015038 0.14694,-1.852084 0.63216,-2.740918 0.47708,-3.026471 -0.76557,-1.409643 -1.17786,1.532528 -1.49452,1.721564 -1.86896,1.115704 -0.29781,-0.481857 3.27095,-4.93213 3.95516,-4.93213 0.44085,0 0.49583,0.304754 0.30231,1.675695 -0.1301,0.921632 -0.31396,1.993194 -0.40858,2.38125 -0.11192,0.458988 0.32081,0.156435 1.23825,-0.865756 1.12615,-1.254709 1.45468,-1.455658 1.63056,-0.997321 0.14412,0.375562 -0.41009,1.376101 -1.60314,2.894228 -1.80996,2.303134 -2.23465,2.624855 -2.62697,1.990057 z M 55.779908,26.487814 c -0.372304,-0.602403 0.181413,-1.070514 1.017937,-0.86056 0.964548,0.242086 1.959212,-0.713126 1.363201,-1.309135 -0.26602,-0.26602 -0.730593,-0.258846 -1.589261,0.02454 -1.48082,0.488714 -2.159194,0.263172 -2.685993,-0.893023 -0.482713,-1.059441 -0.113542,-1.909402 1.114876,-2.566832 1.109867,-0.593982 2.147306,-0.389178 2.310077,0.456039 0.102242,0.530895 -0.02734,0.623184 -0.647336,0.46105 -1.071383,-0.280171 -1.765445,0.05207 -1.765445,0.84511 0,0.765967 0.48689,0.830316 2.080112,0.274916 0.945582,-0.329632 1.238077,-0.292426 1.81653,0.231066 0.920817,0.833328 0.870755,1.985198 -0.127017,2.922558 -0.845168,0.793994 -2.505763,1.032226 -2.887681,0.414271 z M 98.37782,24.382449 c -0.63059,-0.388567 -1.146524,-0.967308 -1.146524,-1.28609 0,-0.658745 1.971634,-4.238379 2.521714,-4.578349 0.49574,-0.306381 3.03345,0.8783 3.28486,1.533471 0.30026,0.782473 -2.02286,4.829484 -2.83753,4.943144 -0.37179,0.05187 -1.19193,-0.223608 -1.82252,-0.612176 z m 2.7065,-2.250155 c 0.88502,-1.624364 0.89148,-1.6828 0.24014,-2.17334 -0.84977,-0.639992 -1.01427,-0.52522 -2.14383,1.495771 -0.87567,1.566754 -0.89345,1.689372 -0.30715,2.118092 0.8808,0.644055 1.182,0.447806 2.21084,-1.440523 z m -39.953947,1.298113 c -0.129354,-0.129352 -0.235187,-0.459465 -0.235187,-0.733586 0,-0.357928 0.273428,-0.440962 0.970139,-0.294607 1.191496,0.250292 2.030324,-0.232738 1.736023,-0.999669 -0.174854,-0.455665 -0.515236,-0.522976 -1.692585,-0.33471 -1.63956,0.262176 -2.424688,-0.343749 -2.424688,-1.871259 0,-1.653258 3.523781,-2.623207 3.821991,-1.052034 0.103914,0.547496 -0.0376,0.618596 -0.878928,0.441599 -1.157701,-0.243554 -2.043952,0.194318 -1.808466,0.893512 0.107375,0.318812 0.74205,0.481773 1.876337,0.481773 1.513296,0 1.778264,0.116053 2.26199,0.990738 0.527042,0.953008 0.510215,1.023539 -0.4419,1.852083 -0.930275,0.809534 -2.66106,1.149829 -3.184726,0.62616 z m 32.81513,-1.069792 c -0.136465,-0.220806 1.660483,-5.100822 2.101085,-5.705966 0.05277,-0.07248 0.32967,-0.04209 0.615336,0.06753 0.428544,0.164448 0.318184,0.677665 -0.630954,2.934203 -1.08543,2.580557 -1.683004,3.355432 -2.085467,2.70423 z M 67.086764,20.743914 c -0.820018,-1.251505 -1.497736,-4.735496 -1.015058,-5.218174 0.628445,-0.628448 3.087737,-0.819804 3.536897,-0.275204 0.216627,0.262656 0.634654,1.402319 0.928949,2.532584 0.507506,1.949134 0.50009,2.090016 -0.143923,2.734028 -0.373447,0.37345 -0.904141,0.679 -1.179312,0.679 -0.275173,0 -0.739605,0.09183 -1.032072,0.204055 -0.326358,0.125235 -0.749508,-0.128267 -1.095481,-0.656289 z m 2.601027,-1.399849 c -0.01475,-0.436563 -0.227362,-1.349375 -0.472447,-2.028473 -0.341566,-0.94644 -0.644176,-1.234722 -1.296077,-1.234722 -0.737599,0 -0.839132,0.148154 -0.765031,1.116318 0.152026,1.986294 0.693907,2.940626 1.669719,2.940626 0.696429,0 0.884823,-0.173106 0.863836,-0.793749 z m 20.13936,1.411111 c 0.0025,-0.242535 0.238545,-1.314098 0.524979,-2.38125 0.655937,-2.443771 0.655937,-2.822222 0,-2.822222 -0.291042,0 -0.529167,-0.250739 -0.529167,-0.557197 0,-0.444599 0.231691,-0.506806 1.146528,-0.307833 1.766919,0.384295 2.734028,0.811982 2.734028,1.209076 0,0.19883 -0.361714,0.361509 -0.803808,0.361509 -0.699421,0 -0.886421,0.320697 -1.439954,2.469444 -0.411544,1.597582 -0.812789,2.469445 -1.136467,2.469445 -0.27518,0 -0.498443,-0.198438 -0.496139,-0.440972 z M 73.320308,19.696842 c -0.198698,-0.242534 -0.471332,-1.480587 -0.605857,-2.751228 -0.268051,-2.531861 -0.01859,-3.029227 1.58629,-3.162603 1.642234,-0.13648 2.068523,0.0029 2.307033,0.754402 0.324686,1.02299 -0.611152,1.617947 -0.97935,0.622619 -0.202678,-0.547896 -0.451361,-0.658301 -1.060796,-0.470952 -0.437829,0.134595 -0.837928,0.2801 -0.889109,0.323346 -0.05118,0.04324 0.02984,0.936337 0.18004,1.984647 0.23295,1.625847 0.393016,1.923086 1.088923,2.022121 0.585413,0.08331 0.869999,-0.09105 1.007632,-0.617361 0.27353,-1.045973 1.16785,-0.925581 1.16785,0.157213 0,0.63148 -0.263338,0.990797 -0.904911,1.234722 -1.241947,0.472188 -2.46501,0.431278 -2.897745,-0.09693 z m 12.6221,-0.264583 c 0,-0.571164 -0.235187,-0.705556 -1.234722,-0.705556 -0.862344,0 -1.234723,0.15959 -1.234723,0.529167 0,0.292685 -0.313009,0.529167 -0.700408,0.529167 -0.694556,0 -0.694803,-0.014 -0.02946,-1.675695 1.65518,-4.133855 1.769681,-4.321527 2.636643,-4.321527 0.955831,0 1.08911,0.36255 1.458976,3.96875 0.211124,2.058477 0.166931,2.381249 -0.326033,2.381249 -0.33509,0 -0.570276,-0.290981 -0.570276,-0.705555 z M 85.58963,16.433648 c 0,-1.293592 -0.496319,-1.676231 -0.800777,-0.617361 -0.09763,0.339548 -0.291878,0.895173 -0.431666,1.234722 -0.194741,0.473042 -0.0804,0.617361 0.489144,0.617361 0.614299,0 0.743299,-0.214286 0.743299,-1.234722 z m -6.35,0 c 0,-2.743827 0.09593,-3.351389 0.529167,-3.351389 0.433236,0 0.529167,0.607562 0.529167,3.351389 0,2.743827 -0.09593,3.351389 -0.529167,3.351389 -0.433236,0 -0.529167,-0.607562 -0.529167,-3.351389 z"
     id="path75"
     inkscape:connector-curvature="0"
     sodipodi:nodetypes="csscssscccssscsccssssssscccssccccccsssssssscccscccscssccssscccscscccsccccccscssccsccccsccccssccccscccccccccccccscccscccssccccccccccccccccsccsccccccssccccccccsccssccssccsccccccccssscccsscccccccsscccccsssccccscscsccccccccccccscscsscsccccccsccccsccsccscsccssccccscscccccssccccccccssccccscccccccccccccccccsccsssscscccsscccccccsscscsccscsscccccccccsscscscsccccccssscccscccccsccccsssccccccccccccscccsscccccssccsccscssccsscsssscccsccsccscccssscscsssscssscccccssccccscccccccsccsccscscccsccscsssscscssscccsccsscscccscccscccssccsssssssccsssssccsccscsccscsscsssccsscccssscccccsccccssscsccscccsssccccccscsscccccccscccssssscccccssscsssssssscssssscssssssscsccssssssccscsscccsccscsccccsccscscsccssscccscsccscccscsscsscssssccccccccsccccscsccssscccsscsscsccssccscsscsccccssscsssccsccsssssss" />
</svg>
